<?xml version="1.0" standalone="no"?>
<!DOCTYPE svg PUBLIC "-//W3C//DTD SVG 20010904//EN"
 "http://www.w3.org/TR/2001/REC-SVG-20010904/DTD/svg10.dtd">
<svg version="1.0" xmlns="http://www.w3.org/2000/svg"
 width="338.000000pt" height="338.000000pt" viewBox="0 0 338.000000 338.000000"
 preserveAspectRatio="xMidYMid meet">
<metadata>
Created by potrace 1.11, written by Peter Selinger 2001-2013
</metadata>
<g transform="translate(0.000000,338.000000) scale(0.100000,-0.100000)"
fill="#000000" stroke="none">
<path d="M1642 2829 c-96 -13 -151 -49 -306 -202 -124 -123 -147 -152 -178
-217 -20 -41 -41 -99 -47 -128 -6 -29 -17 -63 -25 -75 -17 -27 -33 -80 -17
-57 21 30 12 -53 -15 -132 -24 -74 -43 -99 -45 -60 0 9 -7 -7 -16 -37 -8 -30
-11 -66 -8 -80 l7 -26 39 45 c39 44 39 45 34 15 -7 -44 -12 -80 -37 -289 l-23
-189 -37 -23 c-21 -13 -45 -38 -53 -55 -15 -28 -15 -34 1 -80 17 -47 17 -52 1
-82 -9 -18 -19 -44 -22 -58 -8 -31 16 -83 45 -102 13 -7 20 -23 20 -42 0 -16
9 -43 19 -58 25 -38 109 -97 137 -97 18 0 29 -12 49 -52 32 -68 82 -102 136
-95 25 3 42 0 49 -8 7 -8 33 -21 60 -30 39 -13 56 -14 94 -4 40 10 49 9 64 -4
26 -24 99 -47 146 -47 24 0 57 10 81 23 38 22 43 23 94 10 49 -13 59 -12 125
7 39 12 82 29 96 38 14 9 45 17 70 17 64 0 113 33 145 99 20 42 35 57 71 74
36 18 50 32 66 69 18 40 19 54 10 87 -9 35 -8 44 11 71 43 59 18 159 -53 215
-18 14 -19 23 -9 213 7 140 7 208 0 229 -13 35 -13 104 -2 133 7 17 12 13 34
-32 30 -58 69 -93 103 -93 37 0 30 32 -12 55 -64 34 -85 81 -109 245 -14 91
-9 110 28 110 11 0 29 -7 39 -17 10 -9 18 -11 18 -5 0 17 -35 32 -75 32 -32 0
-38 4 -51 38 -53 130 -102 228 -144 284 -56 74 -223 243 -292 293 -79 59 -208
89 -316 74z m226 -64 c54 -23 76 -47 160 -174 42 -63 102 -148 134 -188 133
-167 173 -316 141 -533 -7 -52 -13 -147 -12 -210 1 -83 -3 -126 -14 -155 -9
-22 -21 -67 -27 -100 -17 -87 -37 -122 -84 -150 l-42 -25 -55 21 c-45 18 -68
20 -144 16 -113 -6 -268 6 -542 42 -42 5 -87 18 -107 30 -18 12 -62 27 -97 34
l-64 13 3 44 c2 25 8 69 14 98 l12 54 40 -6 c62 -10 193 27 228 63 15 16 41
34 57 41 24 10 30 19 34 53 2 23 10 69 17 103 15 73 8 114 -20 114 -15 0 -20
-7 -20 -29 0 -17 -4 -33 -10 -36 -6 -4 -10 6 -10 23 0 39 -35 82 -66 82 -27 0
-78 -23 -106 -48 -21 -17 -24 -3 -8 29 18 32 1 21 -20 -13 -49 -80 -5 -159 95
-171 30 -3 30 -3 -8 -11 -82 -18 -166 29 -189 105 -7 25 -16 38 -24 35 -16 -6
-13 102 6 244 14 102 36 143 174 335 94 130 146 169 146 109 0 -15 4 -23 11
-18 6 3 4 -8 -5 -24 -9 -17 -16 -38 -16 -46 0 -8 -12 -37 -26 -65 -30 -62 -30
-116 1 -116 11 -1 53 -12 94 -25 71 -22 80 -23 175 -12 133 15 194 37 214 79
14 29 13 37 -3 95 -9 35 -24 76 -33 93 -8 16 -15 41 -16 55 -1 20 -12 31 -60
54 -48 25 -71 30 -135 30 -42 1 -95 -3 -118 -7 -54 -11 -56 3 -6 34 72 45 259
63 331 34z m-84 -186 c21 -6 49 -21 62 -34 28 -29 32 -51 7 -40 -84 37 -132
47 -210 43 -66 -2 -87 -7 -113 -26 l-31 -24 15 31 c34 64 140 84 270 50z m-40
-208 c44 -9 34 -25 -21 -34 -66 -10 -143 0 -173 23 l-25 20 95 -1 c52 -1 108
-4 124 -8z m-329 -521 c0 -8 -10 -16 -22 -18 -18 -3 -23 2 -23 18 0 16 5 21
23 18 12 -2 22 -10 22 -18z m-181 -86 c28 -13 61 -24 74 -24 45 0 20 -19 -60
-44 -78 -26 -82 -26 -99 -9 -18 18 -22 44 -20 123 l1 45 27 -34 c14 -18 49
-44 77 -57z m832 -725 c29 -31 29 -31 4 -24 -33 10 -50 24 -50 41 0 22 14 17
46 -17z m-200 -50 c9 -15 -23 -21 -45 -9 -12 6 -21 17 -21 25 0 11 6 12 30 3
17 -5 33 -14 36 -19z m-516 -103 c0 -13 -20 -36 -31 -36 -13 0 -19 33 -8 46
12 15 39 8 39 -10z m314 -24 c6 -10 -17 -40 -34 -42 -32 -5 -70 0 -70 9 0 5
19 16 43 24 51 19 55 19 61 9z m586 -42 c8 -15 6 -24 -10 -40 -29 -29 -48 -26
-42 8 9 51 34 66 52 32z m-278 -34 c15 -22 7 -37 -27 -52 -55 -23 -103 -19
-117 10 -17 39 -5 55 49 58 57 4 85 -1 95 -16z m-516 -32 c19 -15 34 -31 34
-36 0 -19 -91 -2 -113 21 l-21 20 25 10 c35 14 37 14 75 -15z m244 -130 c12
-12 10 -14 -21 -14 -41 0 -99 18 -99 30 0 23 92 11 120 -16z m320 0 c0 -8 -67
-34 -87 -34 -32 1 25 40 58 40 16 0 29 -2 29 -6z"/>
<path d="M1500 2223 c-24 -30 -24 -80 0 -138 15 -37 26 -16 12 24 -21 59 30
98 110 85 38 -6 78 -42 78 -70 0 -8 4 -14 10 -14 14 0 24 51 13 69 -16 28
-113 71 -159 71 -34 0 -47 -5 -64 -27z"/>
<path d="M1904 1942 c-71 -60 -53 -174 32 -202 94 -31 179 62 140 154 -8 19
-24 37 -35 40 -12 3 -31 9 -42 12 -14 4 -19 2 -15 -5 4 -7 -1 -11 -13 -11 -11
0 -33 -12 -50 -26 -29 -24 -31 -25 -31 -6 0 11 12 30 26 41 15 12 23 21 18 21
-5 -1 -18 -9 -30 -18z m134 -143 c3 -17 -23 -33 -39 -23 -5 3 -9 14 -9 25 0
15 6 20 22 17 13 -2 24 -10 26 -19z"/>
<path d="M1761 1867 c-2 -85 56 -149 153 -169 64 -14 129 -2 176 32 30 21 66
87 54 98 -3 4 -9 1 -12 -7 -2 -8 -20 -31 -38 -51 -95 -105 -268 -58 -316 85
l-16 50 -1 -38z"/>
<path d="M1730 1721 c0 -5 -8 -17 -17 -27 -16 -16 -16 -18 3 -33 12 -10 20
-28 20 -46 -1 -28 3 -32 84 -64 63 -25 105 -35 163 -39 71 -4 80 -3 118 23 54
35 41 54 -25 35 -26 -7 -62 -9 -88 -5 -44 6 -168 44 -168 50 0 2 14 3 30 3 28
-1 49 8 39 15 -2 2 -34 24 -71 50 -66 46 -88 56 -88 38z"/>
</g>
</svg>
