<?xml version="1.0" standalone="no"?>
<!DOCTYPE svg PUBLIC "-//W3C//DTD SVG 20010904//EN"
 "http://www.w3.org/TR/2001/REC-SVG-20010904/DTD/svg10.dtd">
<svg version="1.0" xmlns="http://www.w3.org/2000/svg"
 width="529.000000pt" height="529.000000pt" viewBox="0 0 529.000000 529.000000"
 preserveAspectRatio="xMidYMid meet">
<metadata>
Created by potrace 1.11, written by Peter Selinger 2001-2013
</metadata>
<g transform="translate(0.000000,529.000000) scale(0.100000,-0.100000)"
fill="#000000" stroke="none">
<path d="M2405 4795 c-78 -17 -175 -64 -250 -121 -33 -25 -85 -64 -115 -87
-82 -61 -313 -290 -375 -371 -107 -141 -176 -287 -230 -486 -14 -54 -35 -106
-51 -127 -20 -26 -31 -60 -45 -141 -21 -123 -82 -320 -127 -407 -63 -127 -32
-187 45 -86 21 28 41 50 44 50 8 1 -1 -109 -13 -147 -8 -27 -7 -37 7 -52 16
-17 16 -29 1 -182 -9 -90 -21 -199 -27 -243 -6 -44 -17 -140 -24 -213 -15
-147 -18 -154 -91 -197 -89 -52 -136 -219 -79 -281 24 -26 34 -78 17 -86 -4
-1 -22 -29 -40 -60 -37 -67 -43 -143 -16 -222 13 -37 24 -51 55 -67 45 -23 65
-60 47 -88 -6 -11 -8 -33 -4 -57 6 -31 23 -54 86 -116 79 -77 145 -119 207
-133 41 -8 68 -42 88 -110 17 -60 61 -110 134 -153 37 -22 58 -26 125 -27 60
-1 95 -7 136 -24 181 -75 192 -78 287 -55 44 10 77 14 81 8 19 -26 58 -48 133
-74 76 -27 91 -29 169 -23 95 7 148 22 200 58 32 22 39 23 92 13 58 -10 78 -7
198 27 30 8 84 18 120 20 103 8 133 16 170 44 29 22 46 26 101 27 51 0 79 7
120 27 85 42 165 119 204 197 27 54 39 68 62 73 47 9 120 65 151 115 52 82 66
176 37 257 -12 34 -12 42 0 55 8 9 26 42 40 73 33 75 34 147 3 204 -45 83 -98
153 -133 175 -41 27 -40 15 -20 233 8 88 15 207 15 265 0 58 7 149 14 203 11
73 12 117 4 175 -10 78 -6 222 7 255 12 30 24 19 57 -49 34 -72 105 -157 149
-179 44 -23 78 -19 85 9 9 38 -3 63 -41 80 -48 23 -93 63 -121 108 -33 51 -88
273 -108 433 -9 71 -20 133 -24 136 -4 4 -16 9 -27 11 -28 5 -60 58 -90 151
-32 98 -130 289 -208 408 -82 125 -210 274 -371 434 -227 226 -344 302 -527
340 -85 18 -252 18 -334 0z m375 -46 c36 -6 72 -12 80 -13 29 -5 78 -36 128
-81 49 -45 71 -75 218 -303 90 -141 208 -303 301 -412 53 -63 120 -180 164
-285 26 -63 61 -214 71 -306 14 -128 1 -311 -33 -469 -28 -127 -33 -371 -10
-487 14 -69 13 -73 -12 -137 -15 -36 -38 -119 -51 -184 -47 -227 -81 -282
-204 -339 -51 -24 -54 -24 -87 -9 -129 61 -275 79 -431 51 -82 -14 -110 -15
-153 -6 -28 6 -86 11 -127 11 -42 0 -123 7 -182 15 -59 8 -165 21 -237 30 -71
8 -157 20 -190 25 -33 6 -99 14 -146 19 -47 4 -92 11 -100 16 -8 5 -36 23 -64
41 -50 32 -135 56 -247 69 l-58 7 0 82 c0 44 7 108 14 141 33 140 43 170 55
167 35 -8 194 -3 247 8 79 16 215 58 232 73 8 6 18 20 22 31 4 11 47 43 96 72
l89 51 -3 44 c-2 24 4 67 12 94 25 80 45 245 36 290 -15 77 -20 82 -64 65 -19
-7 -26 -17 -26 -36 0 -35 -21 -104 -32 -104 -4 0 -8 22 -8 48 0 100 -54 160
-163 181 -51 9 -55 7 -30 -21 15 -17 15 -18 -11 -18 -36 0 -84 -21 -122 -53
-33 -28 -44 -26 -44 6 0 25 63 87 88 87 12 0 24 5 27 10 12 20 -32 9 -76 -19
-191 -120 -92 -420 131 -399 28 3 48 2 43 -2 -19 -17 -80 -30 -138 -30 -149 0
-259 84 -302 228 -19 65 -28 73 -49 45 -10 -15 -12 11 -9 152 5 231 41 474 84
563 36 73 142 237 204 314 23 29 71 96 106 148 92 137 124 173 180 204 49 26
50 26 60 7 6 -11 11 -30 11 -42 0 -17 5 -20 25 -17 14 3 25 4 25 2 0 -2 -15
-32 -34 -66 -19 -35 -37 -74 -41 -88 -6 -24 -5 -24 9 -6 24 30 19 6 -9 -39
-86 -141 -110 -237 -76 -293 21 -32 21 -32 52 -16 30 15 34 15 99 -15 148 -66
275 -76 500 -41 186 28 300 73 333 128 27 48 32 114 12 164 -9 24 -19 60 -21
80 -3 37 -45 135 -81 192 -13 21 -15 30 -5 33 46 17 -27 106 -122 148 -129 57
-348 73 -496 36 -41 -10 -77 -16 -80 -14 -2 2 8 15 23 29 15 14 27 30 27 36 0
6 3 9 6 5 4 -3 32 7 63 23 37 19 100 38 186 54 200 39 221 40 315 25z m-170
-369 c100 -16 187 -48 220 -82 29 -29 77 -108 65 -108 -3 0 -36 15 -73 34
-101 51 -227 79 -352 80 -126 0 -196 -18 -263 -69 -26 -20 -47 -33 -47 -30 0
3 11 28 25 55 53 105 220 152 425 120z m-119 -410 c186 -19 245 -40 190 -69
-20 -11 -189 -33 -200 -27 -4 3 -33 6 -66 7 -84 4 -173 39 -171 68 1 11 14 18
46 22 73 10 93 9 201 -1z m-513 -1012 c28 -28 7 -78 -33 -78 -27 0 -45 18 -45
45 0 27 18 45 45 45 12 0 26 -5 33 -12z m-515 -67 c15 -22 39 -51 54 -66 40
-37 199 -112 256 -121 26 -3 49 -10 52 -14 7 -11 -83 -47 -140 -55 -27 -4 -72
-19 -98 -33 l-49 -26 -36 19 c-49 27 -71 62 -72 115 -3 76 0 220 4 220 2 0 15
-18 29 -39z m1797 -1554 c29 -26 50 -50 46 -54 -3 -3 -14 1 -24 10 -10 10 -30
17 -45 17 -28 0 -47 24 -47 60 0 28 6 25 70 -33z m-411 -83 l35 -15 -21 -21
c-25 -25 -58 -20 -99 15 -53 46 -5 58 85 21z m-993 -206 c13 -9 7 -48 -6 -48
-5 0 -12 -9 -15 -20 -8 -26 -30 -25 -49 2 -21 30 -20 44 4 68 19 19 40 18 66
-2z m620 -72 c9 -24 -26 -65 -65 -76 -21 -5 -56 -6 -81 -2 -35 6 -45 12 -45
27 0 16 15 24 75 41 92 27 109 28 116 10z m-976 -52 c0 -8 -4 -12 -10 -9 -5 3
-10 10 -10 16 0 5 5 9 10 9 6 0 10 -7 10 -16z m2124 -19 c22 -33 20 -58 -6
-83 -21 -19 -68 -42 -88 -42 -5 0 -4 16 1 35 6 19 7 40 4 45 -9 15 34 70 55
70 10 0 25 -11 34 -25z m-561 -53 c21 -9 27 -18 27 -41 0 -68 -36 -91 -157
-99 -99 -6 -126 7 -144 68 -15 48 -5 63 51 78 46 11 188 8 223 -6z m-1042 -50
c85 -56 109 -77 109 -92 0 -34 -58 -40 -133 -14 -46 16 -107 62 -107 82 0 11
65 41 90 41 8 1 27 -7 41 -17z m440 -242 c20 -6 53 -23 73 -40 l37 -29 -34 -6
c-37 -7 -131 8 -184 31 -33 13 -44 38 -20 47 21 9 91 7 128 -3z"/>
<path d="M2174 3683 c-43 -40 -58 -92 -51 -171 7 -73 48 -172 71 -172 21 0 20
9 -4 70 -25 64 -25 104 0 140 30 42 68 53 168 48 115 -5 143 -21 178 -105 15
-35 32 -62 38 -60 18 6 37 77 30 114 -8 40 -47 75 -138 121 -56 28 -78 34
-163 38 -98 6 -98 6 -129 -23z"/>
<path d="M2975 3118 c-71 -39 -115 -112 -115 -193 0 -133 93 -227 225 -227
162 0 264 148 210 303 -22 61 -40 77 -113 99 -85 26 -101 26 -77 0 18 -20 17
-20 -9 -20 -38 0 -87 -22 -128 -59 -34 -30 -37 -30 -43 -12 -3 11 1 34 10 50
16 33 42 50 90 62 l30 7 -30 1 c-16 0 -39 -5 -50 -11z m230 -268 c15 -17 16
-24 7 -45 -17 -36 -60 -44 -84 -15 -44 54 30 112 77 60z"/>
<path d="M2670 3000 c-35 -65 3 -197 82 -277 81 -83 231 -125 373 -106 91 13
191 59 231 106 42 49 76 130 66 156 -7 20 -11 17 -37 -34 -76 -144 -222 -216
-378 -185 -165 31 -265 127 -305 291 -18 71 -19 73 -32 49z"/>
<path d="M2600 2681 c-5 -11 -10 -25 -10 -32 0 -7 -12 -23 -27 -36 l-28 -23
36 -33 c20 -19 41 -36 48 -38 9 -3 8 -13 -6 -37 -14 -24 -15 -36 -7 -49 24
-40 242 -134 388 -168 91 -20 218 -21 275 0 62 22 141 82 141 107 0 4 -9 12
-20 18 -14 8 -40 4 -104 -14 -73 -22 -93 -24 -148 -16 -78 11 -161 31 -248 59
-93 30 -106 41 -48 41 55 0 102 16 93 30 -4 6 -50 40 -103 76 -54 35 -119 80
-146 99 -55 40 -71 43 -86 16z"/>
</g>
</svg>
